<?xml version="1.0" encoding="utf-8"?>
<!-- Generator: Adobe Illustrator 21.0.1, SVG Export Plug-In . SVG Version: 6.00 Build 0)  -->
<svg version="1.1" id="Layer_1" xmlns="http://www.w3.org/2000/svg" xmlns:xlink="http://www.w3.org/1999/xlink" x="0px" y="0px"
	 viewBox="0 0 56 50" style="enable-background:new 0 0 56 50;" xml:space="preserve">
<style type="text/css">
	.st0{fill:#FF0000;}
</style>
<title>Hartje</title>
<path class="st0" d="M14.8,0c-4,0-7.8,1.6-10.5,4.5c-5.8,6.1-5.8,15.6,0,21.6l22.2,23.2c0.8,0.8,2,0.8,2.8,0.1c0,0,0,0,0,0l0.1-0.1
	l22.3-23.2c5.8-6.1,5.8-15.6,0-21.6c-5.5-5.8-14.7-6-20.5-0.5c-0.2,0.1-0.3,0.3-0.5,0.5L28,7.3l-2.7-2.8C22.6,1.6,18.8,0,14.8,0z
	 M14.8,3.9c2.9,0,5.7,1.2,7.6,3.4l4.1,4.3c0.8,0.8,2,0.8,2.8,0.1c0,0,0,0,0,0l0.1-0.1l4.1-4.3C37.4,3.1,44,2.8,48.2,6.6
	c0.2,0.2,0.4,0.4,0.6,0.6c4.3,4.5,4.3,11.6,0,16.1L28,45.1L7.2,23.4c-4.3-4.5-4.3-11.6,0-16.1C9.2,5.1,11.9,3.9,14.8,3.9L14.8,3.9z"
	/>
<rect x="3.6" y="8.4" class="st0" width="48.7" height="16.6"/>
<rect x="8" y="24.2" class="st0" width="39.9" height="5.1"/>
<rect x="12.9" y="29.3" class="st0" width="30.1" height="5.6"/>
<rect x="18.4" y="32.8" class="st0" width="19.6" height="6.8"/>
<rect x="23" y="37.9" class="st0" width="10.1" height="6.9"/>
<rect x="16" y="33.4" class="st0" width="4.9" height="3.2"/>
<rect x="21.2" y="37.9" class="st0" width="4.3" height="4.3"/>
<rect x="26.4" y="43.6" class="st0" width="2.2" height="2.2"/>
<rect x="12.4" y="6.6" class="st0" width="4.5" height="3.1"/>
<rect x="40" y="6.6" class="st0" width="3.5" height="2.4"/>
<rect x="5.9" y="3.8" class="st0" width="17.8" height="5.8"/>
<rect x="31.3" y="4.5" class="st0" width="18.9" height="7.2"/>
<rect x="36.8" y="2.8" class="st0" width="9" height="3.3"/>
</svg>
