<svg id="Layer_1" data-name="Layer 1" xmlns="http://www.w3.org/2000/svg" viewBox="0 0 56.02 49.97"><title>Hartje</title><path d="M36.81,25a14.47,14.47,0,0,0-10.5,4.5,15.69,15.69,0,0,0,0,21.62L48.53,74.36a2,2,0,0,0,2.83.08l.08-.08L73.69,51.17a15.69,15.69,0,0,0,0-21.62,14.53,14.53,0,0,0-21,0L50,32.3l-2.66-2.78A14.53,14.53,0,0,0,36.81,25Zm0,3.9a10.56,10.56,0,0,1,7.63,3.35l4.12,4.31a2,2,0,0,0,2.83.08l.08-.08,4.09-4.28a10.33,10.33,0,0,1,15.22,0,11.72,11.72,0,0,1,0,16.12L50,70.08,29.22,48.39a11.72,11.72,0,0,1,0-16.12A10.47,10.47,0,0,1,36.81,28.92Z" transform="translate(-21.99 -25.02)"/></svg>